<svg width="30" height="30" viewBox="0 0 30 30" fill="none" xmlns="http://www.w3.org/2000/svg">
<mask id="mask0_2432_8589" style="mask-type:alpha" maskUnits="userSpaceOnUse" x="0" y="0" width="30" height="30">
<rect width="30" height="30" fill="#D9D9D9"/>
</mask>
<g mask="url(#mask0_2432_8589)">
<path d="M9.99805 24.9998V4.99976H22.4981V11.2498H23.7481C24.7897 11.2498 25.6751 11.6143 26.4043 12.3435C27.1335 13.0727 27.4981 13.9581 27.4981 14.9998V24.9998H9.99805ZM5.62305 26.2498C6.49805 26.2498 7.23763 25.9477 7.8418 25.3435C8.44596 24.7393 8.74805 23.9998 8.74805 23.1248V13.1248C8.74805 12.2498 8.44596 11.5102 7.8418 10.906C7.23763 10.3018 6.49805 9.99976 5.62305 9.99976C4.74805 9.99976 4.00846 10.3018 3.4043 10.906C2.80013 11.5102 2.49805 12.2498 2.49805 13.1248V23.1248C2.49805 23.9998 2.80013 24.7393 3.4043 25.3435C4.00846 25.9477 4.74805 26.2498 5.62305 26.2498ZM12.498 11.2498H19.9981V7.49976H12.498V11.2498ZM19.9981 17.4998C20.3522 17.4998 20.6491 17.38 20.8887 17.1404C21.1283 16.9008 21.2481 16.6039 21.2481 16.2498C21.2481 15.8956 21.1283 15.5987 20.8887 15.3591C20.6491 15.1195 20.3522 14.9998 19.9981 14.9998C19.6439 14.9998 19.347 15.1195 19.1074 15.3591C18.8678 15.5987 18.7481 15.8956 18.7481 16.2498C18.7481 16.6039 18.8678 16.9008 19.1074 17.1404C19.347 17.38 19.6439 17.4998 19.9981 17.4998ZM23.7481 17.4998C24.1022 17.4998 24.3991 17.38 24.6387 17.1404C24.8783 16.9008 24.9981 16.6039 24.9981 16.2498C24.9981 15.8956 24.8783 15.5987 24.6387 15.3591C24.3991 15.1195 24.1022 14.9998 23.7481 14.9998C23.3939 14.9998 23.097 15.1195 22.8574 15.3591C22.6178 15.5987 22.4981 15.8956 22.4981 16.2498C22.4981 16.6039 22.6178 16.9008 22.8574 17.1404C23.097 17.38 23.3939 17.4998 23.7481 17.4998ZM19.9981 21.2498C20.3522 21.2498 20.6491 21.13 20.8887 20.8904C21.1283 20.6508 21.2481 20.3539 21.2481 19.9998C21.2481 19.6456 21.1283 19.3487 20.8887 19.1091C20.6491 18.8696 20.3522 18.7498 19.9981 18.7498C19.6439 18.7498 19.347 18.8696 19.1074 19.1091C18.8678 19.3487 18.7481 19.6456 18.7481 19.9998C18.7481 20.3539 18.8678 20.6508 19.1074 20.8904C19.347 21.13 19.6439 21.2498 19.9981 21.2498ZM23.7481 21.2498C24.1022 21.2498 24.3991 21.13 24.6387 20.8904C24.8783 20.6508 24.9981 20.3539 24.9981 19.9998C24.9981 19.6456 24.8783 19.3487 24.6387 19.1091C24.3991 18.8696 24.1022 18.7498 23.7481 18.7498C23.3939 18.7498 23.097 18.8696 22.8574 19.1091C22.6178 19.3487 22.4981 19.6456 22.4981 19.9998C22.4981 20.3539 22.6178 20.6508 22.8574 20.8904C23.097 21.13 23.3939 21.2498 23.7481 21.2498ZM12.498 21.2498H17.498V14.9998H12.498V21.2498Z" fill="white"/>
</g>
</svg>
